<svg xmlns="http://www.w3.org/2000/svg"  viewBox="0 0 32 32" width="64px" height="64px"><circle cx="16" cy="17" r="5" fill="#ed0049"/><path fill="#ed0049" d="M23,31H9v0c0-3.866,3.134-7,7-7h0C19.866,24,23,27.134,23,31L23,31z"/><path fill="#0f518c" d="M19,4c0-1.657-1.343-3-3-3s-3,1.343-3,3c0,0.885,0.391,1.672,1,2.222V10h4V6.222 C18.609,5.672,19,4.885,19,4z"/><path fill="#0f518c" d="M7.061,8.318c-1.171-1.171-3.071-1.171-4.243,0s-1.171,3.071,0,4.243 c0.626,0.626,1.459,0.906,2.278,0.864l2.672,2.672l2.828-2.828l-2.672-2.672C7.967,9.777,7.686,8.944,7.061,8.318z"/><path fill="#0f518c" d="M24.879,8.318c1.171-1.171,3.071-1.171,4.243,0s1.171,3.071,0,4.243 c-0.626,0.626-1.459,0.906-2.278,0.864l-2.672,2.672l-2.828-2.828l2.672-2.672C23.972,9.777,24.253,8.944,24.879,8.318z"/><path fill="#0f518c" d="M24.879,27.218c1.171,1.171,3.071,1.171,4.243,0c1.171-1.171,1.171-3.071,0-4.243 c-0.626-0.626-1.459-0.906-2.278-0.864l-2.672-2.672l-2.828,2.828l2.672,2.672C23.972,25.759,24.253,26.592,24.879,27.218z"/><g><path fill="#0f518c" d="M7.061,27.218c-1.171,1.171-3.071,1.171-4.243,0c-1.171-1.171-1.171-3.071,0-4.243 c0.626-0.626,1.459-0.906,2.278-0.864l2.672-2.672l2.828,2.828L7.925,24.94C7.967,25.759,7.686,26.592,7.061,27.218z"/></g></svg>