<svg xmlns="http://www.w3.org/2000/svg"  viewBox="0 0 50 50" width="100px" height="100px" baseProfile="basic"><polygon fill="#66e1ff" points="25.35,37.78 27.38,40.33 25.68,42.82 22.68,44.55 20.47,41.77 19.4,41.85 19.4,43.46 16.4,45.19 13,43.23 13,40.12 8.93,35.11 6.72,35.33 5.02,30.89 7.05,29.71 7.05,24.9 5.02,22.35 6.72,19.87 9.72,18.13 11.93,20.92 13,20.83 13,19.23 16,17.49 19.4,19.46 19.4,22.57 23.47,27.58 25.68,27.35 27.38,31.8 25.35,32.97"/><polygon fill="#5ccae6" points="13,19.226 16,17.494 19.4,19.457 16.4,21.189"/><polygon fill="#57bfd9" points="6.717,19.867 9.717,18.135 11.93,20.916 8.93,22.648"/><polygon fill="#5ccae6" points="13,22.338 13,20.833 11.93,20.916 8.93,22.648"/><polygon fill="#5ccae6" points="7.05,30.678 7.05,29.711 5.017,30.885"/><polygon fill="#479db3" points="16.4,24.301 19.4,22.569 19.4,19.457 16.4,21.189"/><polygon fill="#52b4cc" points="16.4,24.301 19.4,22.569 23.47,27.579 20.47,29.311"/><polygon fill="#5ccae6" points="22.683,29.085 25.683,27.353 23.47,27.579 20.47,29.311"/><polygon fill="#52b4cc" points="22.683,29.085 25.683,27.353 27.383,31.799 24.383,33.531"/><polygon fill="#479db3" points="22.35,33.738 24.383,33.531 25.35,32.973 25.35,37.779 22.35,39.511"/><polygon fill="#479db3" points="16.4,42.078 19.4,41.852 19.4,43.457 16.4,45.189"/><polygon fill="#52b4cc" points="24.383,42.067 27.383,40.335 25.35,37.779 22.35,39.511"/><polygon fill="#479db3" points="24.383,42.067 27.383,40.335 25.683,42.817 22.683,44.549"/><polygon fill="#479db3" points="18.1,31.95 18.1,36.39 14.7,36.65 11.3,32.47 11.3,28.02 14.7,27.76"/><polygon fill="#6189ff" points="43.35,25.08 45.38,27.63 43.68,30.12 40.68,31.85 38.47,29.07 37.4,29.15 37.4,30.76 34.4,32.49 31,30.52 31,27.41 26.93,22.4 24.72,22.63 23.02,18.18 25.05,17.01 25.05,12.2 23.02,9.65 24.72,7.17 24.72,7.16 27.72,5.43 29.93,8.21 31,8.13 31,6.52 34,4.79 37.4,6.76 37.4,9.87 41.47,14.88 43.68,14.65 45.38,19.1 43.35,20.27"/><polygon fill="#577be6" points="31,6.525 34,4.793 37.4,6.756 34.4,8.488"/><polygon fill="#4d6dcc" points="24.717,7.165 27.717,5.433 29.93,8.214 26.93,9.946"/><polygon fill="#577be6" points="31,9.636 31,8.131 29.93,8.214 26.93,9.946"/><polygon fill="#577be6" points="25.05,17.976 25.05,17.01 23.017,18.183"/><polygon fill="#4460b3" points="34.4,11.599 37.4,9.867 37.4,6.756 34.4,8.488"/><polygon fill="#4d6dcc" points="34.4,11.599 37.4,9.867 41.47,14.877 38.47,16.609"/><polygon fill="#577be6" points="40.683,16.383 43.683,14.651 41.47,14.877 38.47,16.609"/><polygon fill="#4967bf" points="40.683,16.383 43.683,14.651 45.383,19.097 42.383,20.829"/><polygon fill="#4460b3" points="40.35,21.036 42.383,20.829 43.35,20.271 43.35,25.078 40.35,26.81"/><polygon fill="#4460b3" points="34.4,29.377 37.4,29.152 37.4,30.756 34.4,32.488"/><polygon fill="#4967bf" points="42.383,29.365 45.383,27.633 43.35,25.078 40.35,26.81"/><polygon fill="#4460b3" points="42.383,29.365 45.383,27.633 43.683,30.116 40.683,31.848"/><polygon fill="#4460b3" points="36.1,19.25 36.1,23.69 32.7,23.95 29.3,19.77 29.3,15.32 32.7,15.06"/></svg>