<svg xmlns="http://www.w3.org/2000/svg"  viewBox="0 0 48 48" width="96px" height="96px"><linearGradient id="SVGID_1_" x1="37.081" x2="10.918" y1="10.918" y2="37.081" gradientUnits="userSpaceOnUse"><stop offset="0" stop-color="#60affe"/><stop offset=".033" stop-color="#6ab4fe"/><stop offset=".197" stop-color="#97cbfe"/><stop offset=".362" stop-color="#bddeff"/><stop offset=".525" stop-color="#daecff"/><stop offset=".687" stop-color="#eef7ff"/><stop offset=".846" stop-color="#fbfdff"/><stop offset="1" stop-color="#fff"/></linearGradient><circle cx="24" cy="24" r="18.5" fill="url(#SVGID_1_)"/><path fill="none" stroke="#2e9bfe" stroke-linecap="round" stroke-linejoin="round" stroke-width="3" d="M42.225,27.194C40.712,35.889,33.128,42.5,24,42.5C13.783,42.5,5.5,34.217,5.5,24S13.783,5.5,24,5.5	c6.982,0,13.061,3.868,16.21,9.578"/><path fill="none" stroke="#2e9bfe" stroke-linecap="round" stroke-linejoin="round" stroke-width="3" d="M16.792,14.19C18.295,8.971,20.961,5.5,24,5.5c4.694,0,8.5,8.283,8.5,18.5S28.694,42.5,24,42.5	s-8.5-8.283-8.5-18.5c0-0.525,0.01-1.044,0.03-1.558"/><line x1="13.234" x2="35.383" y1="17.5" y2="17.5" fill="none" stroke="#2e9bfe" stroke-linecap="round" stroke-linejoin="round" stroke-width="3"/><line x1="11.128" x2="36.532" y1="30.5" y2="30.5" fill="none" stroke="#2e9bfe" stroke-linecap="round" stroke-linejoin="round" stroke-width="3"/></svg>